solid arrow
facet normal 0.0 1.0 0.0
outer loop
vertex -5.00281711486107 413.8 -5.0
vertex 0.0 413.8 0.0
vertex 19.9971828851389 413.8 -5.0
endloop
endfacet
facet normal 0.0 1.0 0.0
outer loop
vertex 0.0 413.8 0.0
vertex -5.00281711486107 413.8 -5.0
vertex -5.00281711486107 413.8 21.0
endloop
endfacet
facet normal 0.0 1.0 0.0
outer loop
vertex 0.0 413.8 0.0
vertex -5.00281711486107 413.8 21.0
vertex 0.0 413.8 15.0
endloop
endfacet
facet normal 0.0 1.0 0.0
outer loop
vertex 0.0 413.8 15.0
vertex -5.00281711486107 413.8 21.0
vertex 15.0 413.8 15.0
endloop
endfacet
facet normal 0.0 1.0 0.0
outer loop
vertex 19.9971828851389 413.8 -5.0
vertex 15.0 413.8 0.0
vertex 19.9971828851389 413.8 21.0
endloop
endfacet
facet normal 0.0 1.0 0.0
outer loop
vertex 15.0 413.8 0.0
vertex 19.9971828851389 413.8 -5.0
vertex 0.0 413.8 0.0
endloop
endfacet
facet normal 0.0 1.0 0.0
outer loop
vertex 19.9971828851389 413.8 21.0
vertex 15.0 413.8 0.0
vertex 15.0 413.8 15.0
endloop
endfacet
facet normal 0.0 1.0 0.0
outer loop
vertex 19.9971828851389 413.8 21.0
vertex 15.0 413.8 15.0
vertex -5.00281711486107 413.8 21.0
endloop
endfacet
facet normal -1.0 1.50222450744122e-018 6.96207397275177e-019
outer loop
vertex -5.00281711486107 395.99481700746 21.0
vertex -5.00281711486107 383.8 -5.0
vertex -5.00281711486107 383.8 21.0
endloop
endfacet
facet normal -1.0 1.50222450744122e-018 6.96207397275177e-019
outer loop
vertex -5.00281711486107 383.8 -5.0
vertex -5.00281711486107 395.99481700746 21.0
vertex -5.00281711486107 395.902222521133 20.7764571353076
endloop
endfacet
facet normal -1.0 1.50222450744122e-018 6.96207397275177e-019
outer loop
vertex -5.00281711486107 383.8 -5.0
vertex -5.00281711486107 395.902222521133 20.7764571353076
vertex -5.00281711486107 395.8 20.0
endloop
endfacet
facet normal -1.0 1.50222450744122e-018 6.96207397275177e-019
outer loop
vertex -5.00281711486107 413.8 21.0
vertex -5.00281711486107 401.697777478867 20.7764571353076
vertex -5.00281711486107 401.60518299254 21.0
endloop
endfacet
facet normal -1.0 1.50222450744122e-018 6.96207397275177e-019
outer loop
vertex -5.00281711486107 401.697777478867 20.7764571353076
vertex -5.00281711486107 413.8 21.0
vertex -5.00281711486107 401.8 20.0
endloop
endfacet
facet normal -1.0 1.50222450744122e-018 6.96207397275177e-019
outer loop
vertex -5.00281711486107 383.8 -5.0
vertex -5.00281711486107 396.201923788647 18.5
vertex -5.00281711486107 413.8 -5.0
endloop
endfacet
facet normal -1.0 1.50222450744122e-018 6.96207397275177e-019
outer loop
vertex -5.00281711486107 396.201923788647 18.5
vertex -5.00281711486107 383.8 -5.0
vertex -5.00281711486107 395.902222521133 19.2235428646924
endloop
endfacet
facet normal -1.0 1.50222450744122e-018 6.96207397275177e-019
outer loop
vertex -5.00281711486107 395.902222521133 19.2235428646924
vertex -5.00281711486107 383.8 -5.0
vertex -5.00281711486107 395.8 20.0
endloop
endfacet
facet normal -1.0 1.50222450744122e-018 6.96207397275177e-019
outer loop
vertex -5.00281711486107 413.8 -5.0
vertex -5.00281711486107 396.201923788647 18.5
vertex -5.00281711486107 396.67867965644 17.8786796564404
endloop
endfacet
facet normal -1.0 1.50222450744122e-018 6.96207397275177e-019
outer loop
vertex -5.00281711486107 413.8 -5.0
vertex -5.00281711486107 396.67867965644 17.8786796564404
vertex -5.00281711486107 397.3 17.4019237886467
endloop
endfacet
facet normal -1.0 1.50222450744122e-018 6.96207397275177e-019
outer loop
vertex -5.00281711486107 413.8 -5.0
vertex -5.00281711486107 397.3 17.4019237886467
vertex -5.00281711486107 398.023542864692 17.1022225211328
endloop
endfacet
facet normal -1.0 1.50222450744122e-018 6.96207397275177e-019
outer loop
vertex -5.00281711486107 413.8 -5.0
vertex -5.00281711486107 398.023542864692 17.1022225211328
vertex -5.00281711486107 398.8 17.0
endloop
endfacet
facet normal -1.0 1.50222450744122e-018 6.96207397275177e-019
outer loop
vertex -5.00281711486107 413.8 -5.0
vertex -5.00281711486107 398.8 17.0
vertex -5.00281711486107 399.576457135308 17.1022225211328
endloop
endfacet
facet normal -1.0 1.50222450744122e-018 6.96207397275177e-019
outer loop
vertex -5.00281711486107 413.8 -5.0
vertex -5.00281711486107 399.576457135308 17.1022225211328
vertex -5.00281711486107 400.3 17.4019237886468
endloop
endfacet
facet normal -1.0 1.50222450744122e-018 6.96207397275177e-019
outer loop
vertex -5.00281711486107 413.8 -5.0
vertex -5.00281711486107 400.3 17.4019237886468
vertex -5.00281711486107 400.92132034356 17.8786796564404
endloop
endfacet
facet normal -1.0 1.50222450744122e-018 6.96207397275177e-019
outer loop
vertex -5.00281711486107 413.8 -5.0
vertex -5.00281711486107 400.92132034356 17.8786796564404
vertex -5.00281711486107 401.398076211354 18.4999999999999
endloop
endfacet
facet normal -1.0 1.50222450744122e-018 6.96207397275177e-019
outer loop
vertex -5.00281711486107 413.8 -5.0
vertex -5.00281711486107 401.398076211354 18.4999999999999
vertex -5.00281711486107 401.697777478867 19.2235428646924
endloop
endfacet
facet normal -1.0 1.50222450744122e-018 6.96207397275177e-019
outer loop
vertex -5.00281711486107 413.8 -5.0
vertex -5.00281711486107 401.697777478867 19.2235428646924
vertex -5.00281711486107 401.8 20.0
endloop
endfacet
facet normal -1.0 1.50222450744122e-018 6.96207397275177e-019
outer loop
vertex -5.00281711486107 413.8 -5.0
vertex -5.00281711486107 401.8 20.0
vertex -5.00281711486107 413.8 21.0
endloop
endfacet
facet normal 0.0 0.0 -1.0
outer loop
vertex 19.9971828851389 413.8 -5.0
vertex -5.00281711486107 383.8 -5.0
vertex -5.00281711486107 413.8 -5.0
endloop
endfacet
facet normal 0.0 0.0 -1.0
outer loop
vertex -5.00281711486107 383.8 -5.0
vertex 19.9971828851389 413.8 -5.0
vertex 19.9971828851389 383.8 -5.0
endloop
endfacet
facet normal 0.0 -1.0 0.0
outer loop
vertex 19.9971828851389 383.8 -5.0
vertex 15.0 383.8 0.0
vertex -5.00281711486107 383.8 -5.0
endloop
endfacet
facet normal 0.0 -1.0 0.0
outer loop
vertex 15.0 383.8 0.0
vertex 19.9971828851389 383.8 -5.0
vertex 19.9971828851389 383.8 21.0
endloop
endfacet
facet normal 0.0 -1.0 0.0
outer loop
vertex 15.0 383.8 0.0
vertex 19.9971828851389 383.8 21.0
vertex 15.0 383.8 15.0
endloop
endfacet
facet normal 0.0 -1.0 0.0
outer loop
vertex 15.0 383.8 15.0
vertex 19.9971828851389 383.8 21.0
vertex 0.0 383.8 15.0
endloop
endfacet
facet normal 0.0 -1.0 0.0
outer loop
vertex -5.00281711486107 383.8 -5.0
vertex 0.0 383.8 0.0
vertex -5.00281711486107 383.8 21.0
endloop
endfacet
facet normal 0.0 -1.0 0.0
outer loop
vertex 0.0 383.8 0.0
vertex -5.00281711486107 383.8 -5.0
vertex 15.0 383.8 0.0
endloop
endfacet
facet normal 0.0 -1.0 0.0
outer loop
vertex -5.00281711486107 383.8 21.0
vertex 0.0 383.8 0.0
vertex 0.0 383.8 15.0
endloop
endfacet
facet normal 0.0 -1.0 0.0
outer loop
vertex -5.00281711486107 383.8 21.0
vertex 0.0 383.8 15.0
vertex 19.9971828851389 383.8 21.0
endloop
endfacet
facet normal 1.0 -4.39443842186757e-019 4.45694611819911e-019
outer loop
vertex 19.9971828851389 413.8 -5.0
vertex 19.9971828851389 383.8 21.0
vertex 19.9971828851389 383.8 -5.0
endloop
endfacet
facet normal 1.0 -4.39443842186757e-019 4.45694611819911e-019
outer loop
vertex 19.9971828851389 383.8 21.0
vertex 19.9971828851389 413.8 -5.0
vertex 19.9971828851389 396.201923788646 18.5
endloop
endfacet
facet normal 1.0 -4.39443842186757e-019 4.45694611819911e-019
outer loop
vertex 19.9971828851389 383.8 21.0
vertex 19.9971828851389 396.201923788646 18.5
vertex 19.9971828851389 395.902222521133 19.2235428646924
endloop
endfacet
facet normal 1.0 -4.39443842186757e-019 4.45694611819911e-019
outer loop
vertex 19.9971828851389 383.8 21.0
vertex 19.9971828851389 395.902222521133 19.2235428646924
vertex 19.9971828851389 395.8 20.0
endloop
endfacet
facet normal 1.0 -4.39443842186757e-019 4.45694611819911e-019
outer loop
vertex 19.9971828851389 396.201923788646 18.5
vertex 19.9971828851389 413.8 -5.0
vertex 19.9971828851389 396.67867965644 17.8786796564405
endloop
endfacet
facet normal 1.0 -4.39443842186757e-019 4.45694611819911e-019
outer loop
vertex 19.9971828851389 396.67867965644 17.8786796564405
vertex 19.9971828851389 413.8 -5.0
vertex 19.9971828851389 397.3 17.4019237886467
endloop
endfacet
facet normal 1.0 -4.39443842186757e-019 4.45694611819911e-019
outer loop
vertex 19.9971828851389 397.3 17.4019237886467
vertex 19.9971828851389 413.8 -5.0
vertex 19.9971828851389 398.023542864693 17.1022225211328
endloop
endfacet
facet normal 1.0 -4.39443842186757e-019 4.45694611819911e-019
outer loop
vertex 19.9971828851389 398.023542864693 17.1022225211328
vertex 19.9971828851389 413.8 -5.0
vertex 19.9971828851389 398.8 17.0
endloop
endfacet
facet normal 1.0 -4.39443842186757e-019 4.45694611819911e-019
outer loop
vertex 19.9971828851389 398.8 17.0
vertex 19.9971828851389 413.8 -5.0
vertex 19.9971828851389 399.576457135308 17.1022225211329
endloop
endfacet
facet normal 1.0 -4.39443842186757e-019 4.45694611819911e-019
outer loop
vertex 19.9971828851389 399.576457135308 17.1022225211329
vertex 19.9971828851389 413.8 -5.0
vertex 19.9971828851389 400.3 17.4019237886468
endloop
endfacet
facet normal 1.0 -4.39443842186757e-019 4.45694611819911e-019
outer loop
vertex 19.9971828851389 400.3 17.4019237886468
vertex 19.9971828851389 413.8 -5.0
vertex 19.9971828851389 400.92132034356 17.8786796564404
endloop
endfacet
facet normal 1.0 -4.39443842186757e-019 4.45694611819911e-019
outer loop
vertex 19.9971828851389 400.92132034356 17.8786796564404
vertex 19.9971828851389 413.8 -5.0
vertex 19.9971828851389 401.398076211354 18.4999999999999
endloop
endfacet
facet normal 1.0 -4.39443842186757e-019 4.45694611819911e-019
outer loop
vertex 19.9971828851389 401.398076211354 18.4999999999999
vertex 19.9971828851389 413.8 -5.0
vertex 19.9971828851389 401.697777478867 19.2235428646924
endloop
endfacet
facet normal 1.0 -4.39443842186757e-019 4.45694611819911e-019
outer loop
vertex 19.9971828851389 401.697777478867 19.2235428646924
vertex 19.9971828851389 413.8 -5.0
vertex 19.9971828851389 401.8 20.0
endloop
endfacet
facet normal 1.0 -4.39443842186757e-019 4.45694611819911e-019
outer loop
vertex 19.9971828851389 401.697777478867 20.7764571353076
vertex 19.9971828851389 413.8 21.0
vertex 19.9971828851389 401.60518299254 21.0
endloop
endfacet
facet normal 1.0 -4.39443842186757e-019 4.45694611819911e-019
outer loop
vertex 19.9971828851389 413.8 21.0
vertex 19.9971828851389 401.697777478867 20.7764571353076
vertex 19.9971828851389 401.8 20.0
endloop
endfacet
facet normal 1.0 -4.39443842186757e-019 4.45694611819911e-019
outer loop
vertex 19.9971828851389 413.8 21.0
vertex 19.9971828851389 401.8 20.0
vertex 19.9971828851389 413.8 -5.0
endloop
endfacet
facet normal 1.0 -4.39443842186757e-019 4.45694611819911e-019
outer loop
vertex 19.9971828851389 383.8 21.0
vertex 19.9971828851389 395.902222521133 20.7764571353076
vertex 19.9971828851389 395.99481700746 21.0
endloop
endfacet
facet normal 1.0 -4.39443842186757e-019 4.45694611819911e-019
outer loop
vertex 19.9971828851389 395.902222521133 20.7764571353076
vertex 19.9971828851389 383.8 21.0
vertex 19.9971828851389 395.8 20.0
endloop
endfacet
facet normal -1.47039425320258e-015 -0.258819045102573 0.965925826289055
outer loop
vertex 19.9971828851389 399.576457135308 17.1022225211329
vertex -5.00281711486107 400.3 17.4019237886468
vertex -5.00281711486107 399.576457135308 17.1022225211328
endloop
endfacet
facet normal -3.54441561518546e-016 -0.500000000000095 0.866025403784384
outer loop
vertex -5.00281711486107 400.3 17.4019237886468
vertex 19.9971828851389 399.576457135308 17.1022225211329
vertex 19.9971828851389 400.3 17.4019237886468
endloop
endfacet
facet normal 1.08860249223222e-017 0.965925826289069 -0.258819045102519
outer loop
vertex -5.00281711486107 395.902222521133 20.7764571353076
vertex 19.9971828851389 395.8 20.0
vertex -5.00281711486107 395.8 20.0
endloop
endfacet
facet normal -1.87532769843354e-015 1.0 -5.91252141576171e-014
outer loop
vertex 19.9971828851389 395.8 20.0
vertex -5.00281711486107 395.902222521133 20.7764571353076
vertex 19.9971828851389 395.902222521133 20.7764571353076
endloop
endfacet
facet normal -3.71997975765398e-015 -0.965925826289097 0.258819045102414
outer loop
vertex 19.9971828851389 401.697777478867 19.2235428646924
vertex -5.00281711486107 401.398076211354 18.4999999999999
vertex 19.9971828851389 401.398076211354 18.4999999999999
endloop
endfacet
facet normal -1.85570777107911e-015 -0.866025403784402 0.500000000000064
outer loop
vertex -5.00281711486107 401.398076211354 18.4999999999999
vertex 19.9971828851389 401.697777478867 19.2235428646924
vertex -5.00281711486107 401.697777478867 19.2235428646924
endloop
endfacet
facet normal -1.08860249223233e-017 -0.965925826289066 -0.25881904510253
outer loop
vertex 19.9971828851389 401.697777478867 20.7764571353076
vertex -5.00281711486107 401.8 20.0
vertex 19.9971828851389 401.8 20.0
endloop
endfacet
facet normal -1.86418863730873e-015 -1.0 -5.73697255081747e-014
outer loop
vertex -5.00281711486107 401.8 20.0
vertex 19.9971828851389 401.697777478867 20.7764571353076
vertex -5.00281711486107 401.697777478867 20.7764571353076
endloop
endfacet
facet normal -3.54441561518547e-016 -0.500000000000095 0.866025403784384
outer loop
vertex 19.9971828851389 400.3 17.4019237886468
vertex -5.00281711486107 400.92132034356 17.8786796564404
vertex -5.00281711486107 400.3 17.4019237886468
endloop
endfacet
facet normal -2.48278340708644e-020 -0.707106781186501 0.707106781186594
outer loop
vertex -5.00281711486107 400.92132034356 17.8786796564404
vertex 19.9971828851389 400.3 17.4019237886468
vertex 19.9971828851389 400.92132034356 17.8786796564404
endloop
endfacet
facet normal -3.71997975765398e-015 -0.965925826289097 0.258819045102414
outer loop
vertex 19.9971828851389 401.697777478867 19.2235428646924
vertex -5.00281711486107 401.8 20.0
vertex -5.00281711486107 401.697777478867 19.2235428646924
endloop
endfacet
facet normal -1.86418863730873e-015 -1.0 -5.73697255081747e-014
outer loop
vertex -5.00281711486107 401.8 20.0
vertex 19.9971828851389 401.697777478867 19.2235428646924
vertex 19.9971828851389 401.8 20.0
endloop
endfacet
facet normal 9.54678239898218e-016 0.707106781186516 0.707106781186579
outer loop
vertex 19.9971828851389 396.67867965644 17.8786796564405
vertex -5.00281711486107 397.3 17.4019237886467
vertex -5.00281711486107 396.67867965644 17.8786796564404
endloop
endfacet
facet normal -1.09408497581475e-015 0.500000000000007 0.866025403784435
outer loop
vertex -5.00281711486107 397.3 17.4019237886467
vertex 19.9971828851389 396.67867965644 17.8786796564405
vertex 19.9971828851389 397.3 17.4019237886467
endloop
endfacet
facet normal -1.85570777107911e-015 -0.866025403784402 0.500000000000064
outer loop
vertex 19.9971828851389 401.398076211354 18.4999999999999
vertex -5.00281711486107 400.92132034356 17.8786796564404
vertex 19.9971828851389 400.92132034356 17.8786796564404
endloop
endfacet
facet normal -2.48278340708644e-020 -0.707106781186501 0.707106781186594
outer loop
vertex -5.00281711486107 400.92132034356 17.8786796564404
vertex 19.9971828851389 401.398076211354 18.4999999999999
vertex -5.00281711486107 401.398076211354 18.4999999999999
endloop
endfacet
facet normal -9.14615819978991e-016 -1.25379316231753e-014 1.0
outer loop
vertex 19.9971828851389 398.8 17.0
vertex -5.00281711486107 399.576457135308 17.1022225211328
vertex -5.00281711486107 398.8 17.0
endloop
endfacet
facet normal -1.47039425320259e-015 -0.258819045102571 0.965925826289055
outer loop
vertex -5.00281711486107 399.576457135308 17.1022225211328
vertex 19.9971828851389 398.8 17.0
vertex 19.9971828851389 399.576457135308 17.1022225211329
endloop
endfacet
facet normal 1.58322969241919e-015 0.866025403784391 0.500000000000082
outer loop
vertex -5.00281711486107 396.201923788647 18.5
vertex 19.9971828851389 395.902222521133 19.2235428646924
vertex 19.9971828851389 396.201923788646 18.5
endloop
endfacet
facet normal -1.78841229310135e-015 0.965925826289081 0.258819045102475
outer loop
vertex 19.9971828851389 395.902222521133 19.2235428646924
vertex -5.00281711486107 396.201923788647 18.5
vertex -5.00281711486107 395.902222521133 19.2235428646924
endloop
endfacet
facet normal -1.87532769843354e-015 1.0 -5.91252141576171e-014
outer loop
vertex -5.00281711486107 395.8 20.0
vertex 19.9971828851389 395.902222521133 19.2235428646924
vertex -5.00281711486107 395.902222521133 19.2235428646924
endloop
endfacet
facet normal -1.78841229310135e-015 0.965925826289081 0.258819045102475
outer loop
vertex 19.9971828851389 395.902222521133 19.2235428646924
vertex -5.00281711486107 395.8 20.0
vertex 19.9971828851389 395.8 20.0
endloop
endfacet
facet normal 1.58322969241919e-015 0.866025403784391 0.500000000000082
outer loop
vertex -5.00281711486107 396.201923788647 18.5
vertex 19.9971828851389 396.67867965644 17.8786796564405
vertex -5.00281711486107 396.67867965644 17.8786796564404
endloop
endfacet
facet normal 9.54678239898218e-016 0.707106781186516 0.707106781186579
outer loop
vertex 19.9971828851389 396.67867965644 17.8786796564405
vertex -5.00281711486107 396.201923788647 18.5
vertex 19.9971828851389 396.201923788646 18.5
endloop
endfacet
facet normal 2.15857869400477e-017 0.923879532511308 -0.38268343236504
outer loop
vertex -5.00281711486107 395.99481700746 21.0
vertex 19.9971828851389 395.902222521133 20.7764571353076
vertex -5.00281711486107 395.902222521133 20.7764571353076
endloop
endfacet
facet normal 1.08860249223222e-017 0.965925826289069 -0.258819045102519
outer loop
vertex 19.9971828851389 395.902222521133 20.7764571353076
vertex -5.00281711486107 395.99481700746 21.0
vertex 19.9971828851389 395.99481700746 21.0
endloop
endfacet
facet normal -2.15857869400491e-017 -0.923879532511297 -0.382683432365064
outer loop
vertex 19.9971828851389 401.60518299254 21.0
vertex -5.00281711486107 401.697777478867 20.7764571353076
vertex 19.9971828851389 401.697777478867 20.7764571353076
endloop
endfacet
facet normal -1.08860249223233e-017 -0.965925826289066 -0.25881904510253
outer loop
vertex -5.00281711486107 401.697777478867 20.7764571353076
vertex 19.9971828851389 401.60518299254 21.0
vertex -5.00281711486107 401.60518299254 21.0
endloop
endfacet
facet normal -3.51003879820649e-016 0.25881904510248 0.965925826289079
outer loop
vertex 19.9971828851389 398.023542864693 17.1022225211328
vertex -5.00281711486107 398.8 17.0
vertex -5.00281711486107 398.023542864692 17.1022225211328
endloop
endfacet
facet normal -9.1461581997899e-016 -1.23864427549493e-014 1.0
outer loop
vertex -5.00281711486107 398.8 17.0
vertex 19.9971828851389 398.023542864693 17.1022225211328
vertex 19.9971828851389 398.8 17.0
endloop
endfacet
facet normal -1.09408497581475e-015 0.500000000000007 0.866025403784435
outer loop
vertex 19.9971828851389 397.3 17.4019237886467
vertex -5.00281711486107 398.023542864692 17.1022225211328
vertex -5.00281711486107 397.3 17.4019237886467
endloop
endfacet
facet normal -3.51003879820663e-016 0.258819045102482 0.965925826289079
outer loop
vertex -5.00281711486107 398.023542864692 17.1022225211328
vertex 19.9971828851389 397.3 17.4019237886467
vertex 19.9971828851389 398.023542864693 17.1022225211328
endloop
endfacet
facet normal 0.0 0.0 1.0
outer loop
vertex 15.0 383.8 0.0
vertex 0.0 413.8 0.0
vertex 0.0 383.8 0.0
endloop
endfacet
facet normal 0.0 0.0 1.0
outer loop
vertex 0.0 413.8 0.0
vertex 15.0 383.8 0.0
vertex 15.0 413.8 0.0
endloop
endfacet
facet normal 0.0 0.0 -1.0
outer loop
vertex 15.0 413.8 15.0
vertex 0.0 383.8 15.0
vertex 0.0 413.8 15.0
endloop
endfacet
facet normal 0.0 0.0 -1.0
outer loop
vertex 0.0 383.8 15.0
vertex 15.0 413.8 15.0
vertex 15.0 383.8 15.0
endloop
endfacet
facet normal -1.0 0.0 0.0
outer loop
vertex 15.0 413.8 15.0
vertex 15.0 383.8 0.0
vertex 15.0 383.8 15.0
endloop
endfacet
facet normal -1.0 0.0 0.0
outer loop
vertex 15.0 383.8 0.0
vertex 15.0 413.8 15.0
vertex 15.0 413.8 0.0
endloop
endfacet
facet normal 1.0 0.0 0.0
outer loop
vertex 0.0 413.8 0.0
vertex 0.0 383.8 15.0
vertex 0.0 383.8 0.0
endloop
endfacet
facet normal 1.0 0.0 0.0
outer loop
vertex 0.0 383.8 15.0
vertex 0.0 413.8 0.0
vertex 0.0 413.8 15.0
endloop
endfacet
facet normal 5.63993296509579e-017 3.46864550836162e-016 1.0
outer loop
vertex 19.9971828851389 401.60518299254 21.0
vertex -5.00281711486107 413.8 21.0
vertex -5.00281711486107 401.60518299254 21.0
endloop
endfacet
facet normal 5.63993296509579e-017 3.46864550836162e-016 1.0
outer loop
vertex -5.00281711486107 413.8 21.0
vertex 19.9971828851389 401.60518299254 21.0
vertex 19.9971828851389 413.8 21.0
endloop
endfacet
facet normal -5.63993296509579e-017 -3.46864550836162e-016 1.0
outer loop
vertex 19.9971828851389 383.8 21.0
vertex -5.00281711486107 395.99481700746 21.0
vertex -5.00281711486107 383.8 21.0
endloop
endfacet
facet normal -5.63993296509579e-017 -3.46864550836162e-016 1.0
outer loop
vertex -5.00281711486107 395.99481700746 21.0
vertex 19.9971828851389 383.8 21.0
vertex 19.9971828851389 395.99481700746 21.0
endloop
endfacet
endsolid arrow
